<?xml version="1.0" encoding="utf-8"?>
<!-- Generator: Adobe Illustrator 24.1.2, SVG Export Plug-In . SVG Version: 6.00 Build 0)  -->
<svg version="1.1" id="SHOPPING_CART" xmlns="http://www.w3.org/2000/svg" xmlns:xlink="http://www.w3.org/1999/xlink" x="0px"
	 y="0px" viewBox="0 0 3100.6 1049.4" style="enable-background:new 0 0 3100.6 1049.4;" xml:space="preserve">
<style type="text/css">
	.st0{opacity:0;fill:#1D3C68;}
	.st1{clip-path:url(#SVGID_2_);fill:#29A4F6;}
	.st2{opacity:0.55;fill:none;stroke:#0C537A;stroke-width:84;stroke-miterlimit:10;}
	.st3{fill:#FFAA39;}
	.st4{fill:#29A4F6;}
	.st5{fill:#FFFFFF;}
	.st6{font-family:'Calibri';}
	.st7{font-size:589px;}
</style>
<rect x="-124" y="-206.9" class="st0" width="1150.5" height="1237.8"/>
<g>
	<defs>
		<rect id="SVGID_1_" x="52.6" y="573.4" width="673" height="476"/>
	</defs>
	<clipPath id="SVGID_2_">
		<use xlink:href="#SVGID_1_"  style="overflow:visible;"/>
	</clipPath>
	<path class="st1" d="M571.2,992.4H246c-57.1,0-103.4-46.3-103.4-103.4V547.8c0-57.1,46.3-103.4,103.4-103.4h325.2
		c57.1,0,103.4,46.3,103.4,103.4V889C674.6,946.1,628.3,992.4,571.2,992.4z"/>
</g>
<path class="st2" d="M403.9,767.4L403.9,767.4c-83.8,0-151.7-67.9-151.7-151.7v-52.1c0-83.8,67.9-151.7,151.7-151.7h0
	c83.8,0,151.7,67.9,151.7,151.7v52.1C555.6,699.5,487.7,767.4,403.9,767.4z"/>
<g>
	<path class="st3" d="M696.3,270.4c-31.8,90.2-63.6,180.3-95.4,270.5c-71.8-0.6-143.7-1.2-215.5-1.8
		c6.7-130.8,13.5-261.7,20.2-392.5c45.6,76.7,91.3,153.5,136.9,230.2C593.8,341.3,645,305.8,696.3,270.4z"/>
	<circle class="st3" cx="686.8" cy="287.5" r="40.5"/>
	<path class="st3" d="M111.6,270.4c31.8,90.2,63.6,180.3,95.4,270.5c71.8-0.6,143.7-1.2,215.5-1.8c-6.7-130.8-13.5-261.7-20.2-392.5
		C356.6,223.2,311,300,265.4,376.7C214.1,341.3,162.8,305.8,111.6,270.4z"/>
	<circle class="st3" cx="121.1" cy="287.5" r="40.5"/>
	<circle class="st3" cx="405.9" cy="146.5" r="47.3"/>
</g>
<circle class="st4" cx="252.3" cy="616.9" r="22.6"/>
<circle class="st4" cx="555.6" cy="616.9" r="22.6"/>
<text transform="matrix(1 0 0 1 815.6382 811.3613)" class="st5 st6 st7">Kamusika</text>
</svg>
