<?xml version="1.0" encoding="utf-8"?>
<!-- Generator: Adobe Illustrator 24.1.2, SVG Export Plug-In . SVG Version: 6.00 Build 0)  -->
<svg version="1.1" id="Layer_1" xmlns="http://www.w3.org/2000/svg" xmlns:xlink="http://www.w3.org/1999/xlink" x="0px" y="0px"
	 viewBox="0 0 42.9 13.5" style="enable-background:new 0 0 42.9 13.5;" xml:space="preserve">
<style type="text/css">
	.st0{fill:#1D3C68;fill-opacity:0;}
	.st1{clip-path:url(#SVGID_2_);}
	.st2{fill:#29A4F6;}
	.st3{opacity:0.55;fill:none;stroke:#0C537A;stroke-miterlimit:10;enable-background:new    ;}
	.st4{fill:#FFAA39;}
	.st5{fill:#FFFFFF;}
	.st6{font-family:'Calibri';}
	.st7{font-size:8.41px;}
</style>
<g id="Layer_2_1_">
	<g id="Layer_1-2">
		<rect x="-2.5" y="-4.2" class="st0" width="16.4" height="17.7"/>
		<g>
			<g>
				<defs>
					<rect id="SVGID_1_" y="7" width="9.6" height="6.8"/>
				</defs>
				<clipPath id="SVGID_2_">
					<use xlink:href="#SVGID_1_"  style="overflow:visible;"/>
				</clipPath>
				<g class="st1">
					<path class="st2" d="M7.4,13H2.8c-0.8,0-1.5-0.7-1.5-1.5V6.6c0-0.8,0.7-1.5,1.5-1.5l0,0h4.6c0.8,0,1.5,0.7,1.5,1.5v4.9
						C8.9,12.3,8.2,13,7.4,13z"/>
				</g>
			</g>
		</g>
		<path class="st3" d="M5,9.7L5,9.7c-1.2,0-2.1-1-2.1-2.1V6.8c0-1.2,1-2.1,2.1-2.2l0,0c1.2,0,2.1,1,2.2,2.2v0.7
			C7.2,8.7,6.3,9.7,5,9.7C5.1,9.7,5,9.7,5,9.7z"/>
		<path class="st4" d="M9.2,2.7C8.8,3.9,8.3,5.2,7.9,6.5c-1,0-2,0-3.1,0C4.9,4.7,5,2.8,5.1,0.9l2,3.3C7.8,3.7,8.5,3.1,9.2,2.7z"/>
		<circle class="st4" cx="9.1" cy="2.9" r="0.6"/>
		<path class="st4" d="M1,2.6c0.4,1.3,0.9,2.6,1.4,3.9c1,0,2.1,0,3.1,0C5.3,4.6,5.2,2.7,5.1,0.8C4.5,1.8,3.8,2.9,3.2,4
			C2.5,3.6,1.7,3,1,2.6z"/>
		<circle class="st4" cx="1.1" cy="2.9" r="0.6"/>
		<circle class="st4" cx="5.1" cy="0.9" r="0.7"/>
		<circle class="st2" cx="2.9" cy="7.6" r="0.3"/>
		<circle class="st2" cx="7.2" cy="7.6" r="0.3"/>
		<text transform="matrix(1 0 0 1 9.8735 10.2559)" class="st5 st6 st7">Kamusika</text>
	</g>
</g>
<rect x="2.3" y="5.7" class="st4" width="5.6" height="0.9"/>
<rect x="4.8" y="1" class="st4" width="0.5" height="3.7"/>
</svg>
